<svg width="526" height="688" viewBox="0 0 526 688" fill="none" xmlns="http://www.w3.org/2000/svg">
<path d="M402.842 671.32H405.758V672.184H403.976V685.216H405.758V686.08H402.842V671.32ZM412.698 683.884L410.322 674.02V685H409.242V672.4H410.88L413.184 681.904L415.344 672.4H416.982V685H415.902V673.714L413.544 683.884H412.698ZM419.369 680.464C419.381 679.036 419.729 677.914 420.413 677.098C421.109 676.27 422.033 675.856 423.185 675.856C424.421 675.856 425.363 676.258 426.011 677.062C426.671 677.854 427.001 678.988 427.001 680.464C427.001 681.88 426.653 683.014 425.957 683.866C425.261 684.718 424.337 685.144 423.185 685.144C422.069 685.144 421.151 684.718 420.431 683.866C419.711 683.014 419.357 681.88 419.369 680.464ZM420.629 680.464C420.629 681.58 420.857 682.486 421.313 683.182C421.781 683.866 422.405 684.208 423.185 684.208C424.889 684.208 425.741 682.96 425.741 680.464C425.741 677.992 424.889 676.756 423.185 676.756C422.405 676.756 421.781 677.086 421.313 677.746C420.857 678.406 420.629 679.312 420.629 680.464ZM429.837 676H431.025L431.043 677.746C431.487 677.11 431.937 676.624 432.393 676.288C432.861 675.94 433.425 675.766 434.085 675.766C435.813 675.766 436.677 676.756 436.677 678.736V685H435.453V678.934C435.453 677.47 434.937 676.738 433.905 676.738C433.329 676.738 432.819 676.924 432.375 677.296C431.943 677.668 431.505 678.178 431.061 678.826V685H429.837V676ZM439.513 680.464C439.525 679.036 439.873 677.914 440.557 677.098C441.253 676.27 442.177 675.856 443.329 675.856C444.565 675.856 445.507 676.258 446.155 677.062C446.815 677.854 447.145 678.988 447.145 680.464C447.145 681.88 446.797 683.014 446.101 683.866C445.405 684.718 444.481 685.144 443.329 685.144C442.213 685.144 441.295 684.718 440.575 683.866C439.855 683.014 439.501 681.88 439.513 680.464ZM440.773 680.464C440.773 681.58 441.001 682.486 441.457 683.182C441.925 683.866 442.549 684.208 443.329 684.208C445.033 684.208 445.885 682.96 445.885 680.464C445.885 677.992 445.033 676.756 443.329 676.756C442.549 676.756 441.925 677.086 441.457 677.746C441.001 678.406 440.773 679.312 440.773 680.464ZM459.964 672.4H466.534V673.3H461.188V677.386H465.976V678.286H461.188V685H459.964V672.4ZM471.854 673.21C471.854 672.886 471.956 672.622 472.16 672.418C472.376 672.214 472.652 672.112 472.988 672.112C473.324 672.112 473.588 672.214 473.78 672.418C473.984 672.622 474.086 672.886 474.086 673.21C474.086 673.57 473.99 673.852 473.798 674.056C473.606 674.248 473.336 674.344 472.988 674.344C472.64 674.344 472.364 674.248 472.16 674.056C471.956 673.852 471.854 673.57 471.854 673.21ZM469.802 685V684.1H472.556V677.836C472.556 677.512 472.49 677.272 472.358 677.116C472.238 676.948 471.98 676.864 471.584 676.864H469.802V676H473.762V684.1H476.318V685H469.802ZM480.432 680.68C480.444 681.868 480.672 682.762 481.116 683.362C481.56 683.962 482.16 684.262 482.916 684.262C483.504 684.262 484.014 684.052 484.446 683.632C484.89 683.212 485.19 682.666 485.346 681.994H486.552C486.348 682.978 485.922 683.752 485.274 684.316C484.638 684.868 483.852 685.144 482.916 685.144C481.812 685.144 480.912 684.772 480.216 684.028C479.532 683.284 479.19 682.108 479.19 680.5C479.19 678.976 479.544 677.824 480.252 677.044C480.96 676.252 481.848 675.856 482.916 675.856C484.104 675.856 485.022 676.258 485.67 677.062C486.33 677.866 486.66 679.072 486.66 680.68H480.432ZM480.468 679.816H485.49C485.418 678.868 485.16 678.118 484.716 677.566C484.284 677.002 483.684 676.72 482.916 676.72C482.256 676.72 481.704 676.99 481.26 677.53C480.816 678.07 480.552 678.832 480.468 679.816ZM492.376 674.398C492.376 673.954 492.292 673.642 492.124 673.462C491.956 673.27 491.626 673.174 491.134 673.174H489.766V672.4H493.564V684.136H496.282V685H489.622V684.136H492.376V674.398ZM506.408 672.4V685H505.22V683.902C504.572 684.694 503.78 685.09 502.844 685.09C501.68 685.09 500.804 684.676 500.216 683.848C499.628 683.02 499.334 681.886 499.334 680.446C499.334 678.862 499.646 677.704 500.27 676.972C500.906 676.228 501.74 675.856 502.772 675.856C503.636 675.856 504.452 676.378 505.22 677.422V672.4H506.408ZM505.22 678.484C504.488 677.368 503.696 676.81 502.844 676.81C501.38 676.81 500.648 678.022 500.648 680.446C500.648 682.93 501.392 684.172 502.88 684.172C503.78 684.172 504.56 683.674 505.22 682.678V678.484ZM512.755 671.32V686.08H509.839V685.216H511.621V672.184H509.839V671.32H512.755Z" fill="black"/>
<path d="M108.719 272.051C82.8526 275.209 26.1981 323.971 6.5118 493.752C-18.0961 705.978 65.1866 668.081 82.2217 651.027C99.2567 633.973 243.109 533.544 352.891 296.685C462.673 59.8247 441.852 -80.3964 381.283 52.2452C320.713 184.887 390.747 724.927 205.253 442.59C56.859 216.721 79.0662 234.785 108.719 272.051Z" stroke="black" stroke-width="2" stroke-linecap="round" stroke-linejoin="round" stroke-dasharray="4 13 9 16"/>
<ellipse cx="128.5" cy="243.5" rx="71.5" ry="20.5" fill="#D9D9D9"/>
<line x1="284.5" y1="95.0005" x2="284.5" y2="630" stroke="black"/>
<line y1="375.5" x2="526" y2="375.5" stroke="black"/>
<line x1="417.129" y1="320.471" x2="448.966" y2="329.001" stroke="black"/>
<path d="M452.162 329.192L439.996 323.053L438.884 330.067L452.162 329.192Z" fill="black" stroke="black"/>
<line x1="432.825" y1="311.054" x2="464.661" y2="319.584" stroke="black"/>
<path d="M467.858 319.775L455.691 313.636L454.579 320.65L467.858 319.775Z" fill="black" stroke="black"/>
<line x1="441.875" y1="306.619" x2="474.343" y2="300.949" stroke="black"/>
<path d="M477.323 299.776L463.703 299.331L465.648 306.161L477.323 299.776Z" fill="black" stroke="black"/>
<path d="M402.842 671.32H405.758V672.184H403.976V685.216H405.758V686.08H402.842V671.32ZM412.698 683.884L410.322 674.02V685H409.242V672.4H410.88L413.184 681.904L415.344 672.4H416.982V685H415.902V673.714L413.544 683.884H412.698ZM419.369 680.464C419.381 679.036 419.729 677.914 420.413 677.098C421.109 676.27 422.033 675.856 423.185 675.856C424.421 675.856 425.363 676.258 426.011 677.062C426.671 677.854 427.001 678.988 427.001 680.464C427.001 681.88 426.653 683.014 425.957 683.866C425.261 684.718 424.337 685.144 423.185 685.144C422.069 685.144 421.151 684.718 420.431 683.866C419.711 683.014 419.357 681.88 419.369 680.464ZM420.629 680.464C420.629 681.58 420.857 682.486 421.313 683.182C421.781 683.866 422.405 684.208 423.185 684.208C424.889 684.208 425.741 682.96 425.741 680.464C425.741 677.992 424.889 676.756 423.185 676.756C422.405 676.756 421.781 677.086 421.313 677.746C420.857 678.406 420.629 679.312 420.629 680.464ZM429.837 676H431.025L431.043 677.746C431.487 677.11 431.937 676.624 432.393 676.288C432.861 675.94 433.425 675.766 434.085 675.766C435.813 675.766 436.677 676.756 436.677 678.736V685H435.453V678.934C435.453 677.47 434.937 676.738 433.905 676.738C433.329 676.738 432.819 676.924 432.375 677.296C431.943 677.668 431.505 678.178 431.061 678.826V685H429.837V676ZM439.513 680.464C439.525 679.036 439.873 677.914 440.557 677.098C441.253 676.27 442.177 675.856 443.329 675.856C444.565 675.856 445.507 676.258 446.155 677.062C446.815 677.854 447.145 678.988 447.145 680.464C447.145 681.88 446.797 683.014 446.101 683.866C445.405 684.718 444.481 685.144 443.329 685.144C442.213 685.144 441.295 684.718 440.575 683.866C439.855 683.014 439.501 681.88 439.513 680.464ZM440.773 680.464C440.773 681.58 441.001 682.486 441.457 683.182C441.925 683.866 442.549 684.208 443.329 684.208C445.033 684.208 445.885 682.96 445.885 680.464C445.885 677.992 445.033 676.756 443.329 676.756C442.549 676.756 441.925 677.086 441.457 677.746C441.001 678.406 440.773 679.312 440.773 680.464ZM459.964 672.4H466.534V673.3H461.188V677.386H465.976V678.286H461.188V685H459.964V672.4ZM471.854 673.21C471.854 672.886 471.956 672.622 472.16 672.418C472.376 672.214 472.652 672.112 472.988 672.112C473.324 672.112 473.588 672.214 473.78 672.418C473.984 672.622 474.086 672.886 474.086 673.21C474.086 673.57 473.99 673.852 473.798 674.056C473.606 674.248 473.336 674.344 472.988 674.344C472.64 674.344 472.364 674.248 472.16 674.056C471.956 673.852 471.854 673.57 471.854 673.21ZM469.802 685V684.1H472.556V677.836C472.556 677.512 472.49 677.272 472.358 677.116C472.238 676.948 471.98 676.864 471.584 676.864H469.802V676H473.762V684.1H476.318V685H469.802ZM480.432 680.68C480.444 681.868 480.672 682.762 481.116 683.362C481.56 683.962 482.16 684.262 482.916 684.262C483.504 684.262 484.014 684.052 484.446 683.632C484.89 683.212 485.19 682.666 485.346 681.994H486.552C486.348 682.978 485.922 683.752 485.274 684.316C484.638 684.868 483.852 685.144 482.916 685.144C481.812 685.144 480.912 684.772 480.216 684.028C479.532 683.284 479.19 682.108 479.19 680.5C479.19 678.976 479.544 677.824 480.252 677.044C480.96 676.252 481.848 675.856 482.916 675.856C484.104 675.856 485.022 676.258 485.67 677.062C486.33 677.866 486.66 679.072 486.66 680.68H480.432ZM480.468 679.816H485.49C485.418 678.868 485.16 678.118 484.716 677.566C484.284 677.002 483.684 676.72 482.916 676.72C482.256 676.72 481.704 676.99 481.26 677.53C480.816 678.07 480.552 678.832 480.468 679.816ZM492.376 674.398C492.376 673.954 492.292 673.642 492.124 673.462C491.956 673.27 491.626 673.174 491.134 673.174H489.766V672.4H493.564V684.136H496.282V685H489.622V684.136H492.376V674.398ZM506.408 672.4V685H505.22V683.902C504.572 684.694 503.78 685.09 502.844 685.09C501.68 685.09 500.804 684.676 500.216 683.848C499.628 683.02 499.334 681.886 499.334 680.446C499.334 678.862 499.646 677.704 500.27 676.972C500.906 676.228 501.74 675.856 502.772 675.856C503.636 675.856 504.452 676.378 505.22 677.422V672.4H506.408ZM505.22 678.484C504.488 677.368 503.696 676.81 502.844 676.81C501.38 676.81 500.648 678.022 500.648 680.446C500.648 682.93 501.392 684.172 502.88 684.172C503.78 684.172 504.56 683.674 505.22 682.678V678.484ZM512.755 671.32V686.08H509.839V685.216H511.621V672.184H509.839V671.32H512.755Z" fill="black"/>
<path d="M108.719 272.051C82.8526 275.209 26.1981 323.971 6.5118 493.752C-18.0961 705.978 65.1866 668.081 82.2217 651.027C99.2567 633.973 243.109 533.544 352.891 296.685C462.673 59.8247 441.852 -80.3964 381.283 52.2452C320.713 184.887 390.747 724.927 205.253 442.59C56.859 216.721 79.0662 234.785 108.719 272.051Z" stroke="black" stroke-width="2" stroke-linecap="round" stroke-linejoin="round" stroke-dasharray="4 13 9 16"/>
<ellipse cx="128.5" cy="243.5" rx="71.5" ry="20.5" fill="#D9D9D9"/>
<line x1="284.5" y1="95.0005" x2="284.5" y2="630" stroke="black"/>
<line y1="375.5" x2="526" y2="375.5" stroke="black"/>
<line x1="417.129" y1="320.471" x2="448.966" y2="329.001" stroke="black"/>
<path d="M452.162 329.192L439.996 323.053L438.884 330.067L452.162 329.192Z" fill="black" stroke="black"/>
<line x1="432.825" y1="311.054" x2="464.661" y2="319.584" stroke="black"/>
<path d="M467.858 319.775L455.691 313.636L454.579 320.65L467.858 319.775Z" fill="black" stroke="black"/>
<line x1="441.875" y1="306.619" x2="474.343" y2="300.949" stroke="black"/>
<path d="M477.323 299.776L463.703 299.331L465.648 306.161L477.323 299.776Z" fill="black" stroke="black"/>
</svg>
