<svg width="526" height="688" viewBox="0 0 526 688" fill="none" xmlns="http://www.w3.org/2000/svg">
<path d="M108.719 272.051C82.8526 275.209 26.1981 323.971 6.5118 493.752C-18.0961 705.978 65.1866 668.081 82.2217 651.027C99.2567 633.973 243.109 533.544 352.891 296.685C462.673 59.8247 441.852 -80.3964 381.283 52.2452C320.713 184.887 390.747 724.927 205.253 442.59C56.859 216.721 79.0662 234.785 108.719 272.051Z" stroke="black" stroke-width="2" stroke-linecap="round" stroke-linejoin="round" stroke-dasharray="4 13 9 16"/>
<ellipse cx="128.5" cy="243.5" rx="71.5" ry="20.5" fill="#D9D9D9"/>
<line x1="284.5" y1="95.0005" x2="284.5" y2="630" stroke="black"/>
<line y1="375.5" x2="526" y2="375.5" stroke="black"/>
<line x1="417.129" y1="320.471" x2="448.966" y2="329.001" stroke="black"/>
<path d="M452.162 329.192L439.996 323.053L438.884 330.067L452.162 329.192Z" fill="black" stroke="black"/>
<line x1="432.825" y1="311.054" x2="464.661" y2="319.584" stroke="black"/>
<path d="M467.858 319.775L455.691 313.636L454.579 320.65L467.858 319.775Z" fill="black" stroke="black"/>
<line x1="441.875" y1="306.619" x2="474.343" y2="300.949" stroke="black"/>
<path d="M477.323 299.776L463.703 299.331L465.648 306.161L477.323 299.776Z" fill="black" stroke="black"/>
<path d="M108.719 272.051C82.8526 275.209 26.1981 323.971 6.5118 493.752C-18.0961 705.978 65.1866 668.081 82.2217 651.027C99.2567 633.973 243.109 533.544 352.891 296.685C462.673 59.8247 441.852 -80.3964 381.283 52.2452C320.713 184.887 390.747 724.927 205.253 442.59C56.859 216.721 79.0662 234.785 108.719 272.051Z" stroke="black" stroke-width="2" stroke-linecap="round" stroke-linejoin="round" stroke-dasharray="4 13 9 16"/>
<ellipse cx="128.5" cy="243.5" rx="71.5" ry="20.5" fill="#D9D9D9"/>
<line x1="284.5" y1="95.0005" x2="284.5" y2="630" stroke="black"/>
<line y1="375.5" x2="526" y2="375.5" stroke="black"/>
<line x1="417.129" y1="320.471" x2="448.966" y2="329.001" stroke="black"/>
<path d="M452.162 329.192L439.996 323.053L438.884 330.067L452.162 329.192Z" fill="black" stroke="black"/>
<line x1="432.825" y1="311.054" x2="464.661" y2="319.584" stroke="black"/>
<path d="M467.858 319.775L455.691 313.636L454.579 320.65L467.858 319.775Z" fill="black" stroke="black"/>
<line x1="441.875" y1="306.619" x2="474.343" y2="300.949" stroke="black"/>
<path d="M477.323 299.776L463.703 299.331L465.648 306.161L477.323 299.776Z" fill="black" stroke="black"/>
</svg>
